<?xml version="1.0" encoding="utf-8"?>
<!-- Generator: Adobe Illustrator 24.3.0, SVG Export Plug-In . SVG Version: 6.00 Build 0)  -->
<!DOCTYPE svg PUBLIC "-//W3C//DTD SVG 1.1//EN" "http://www.w3.org/Graphics/SVG/1.1/DTD/svg11.dtd" [
	<!ENTITY ns_extend "http://ns.adobe.com/Extensibility/1.0/">
	<!ENTITY ns_ai "http://ns.adobe.com/AdobeIllustrator/10.0/">
	<!ENTITY ns_graphs "http://ns.adobe.com/Graphs/1.0/">
	<!ENTITY ns_vars "http://ns.adobe.com/Variables/1.0/">
	<!ENTITY ns_imrep "http://ns.adobe.com/ImageReplacement/1.0/">
	<!ENTITY ns_sfw "http://ns.adobe.com/SaveForWeb/1.0/">
	<!ENTITY ns_custom "http://ns.adobe.com/GenericCustomNamespace/1.0/">
	<!ENTITY ns_adobe_xpath "http://ns.adobe.com/XPath/1.0/">
]>
<svg version="1.1" id="Layer_1" xmlns:x="&ns_extend;" xmlns:i="&ns_ai;" xmlns:graph="&ns_graphs;"
	 xmlns="http://www.w3.org/2000/svg" xmlns:xlink="http://www.w3.org/1999/xlink" x="0px" y="0px" viewBox="0 0 340 75"
	 style="enable-background:new 0 0 340 75;" xml:space="preserve">
<style type="text/css">
	.st0{fill:#231F20;}
	.st1{fill:#DAA72D;}
	.st2{fill:none;stroke:#231F20;stroke-width:2.126;stroke-linecap:round;stroke-linejoin:round;stroke-miterlimit:10;}
</style>
<metadata>
	<sfw  xmlns="&ns_sfw;">
		<slices></slices>
		<sliceSourceBounds  bottomLeftOrigin="true" height="74" width="338" x="1" y="-74.5"></sliceSourceBounds>
	</sfw>
</metadata>
<g>
	<g>
		<path class="st0" d="M53.7,74.5c-1.2,0-2.3-1-2.3-2.3V2.8c0-1.3,1-2.3,2.3-2.3c1.2,0,2.3,1,2.3,2.3v69.4
			C56,73.5,55,74.5,53.7,74.5z"/>
		<path class="st0" d="M66.3,65.2c-1.2,0-2.3-1-2.3-2.3V12.1c0-1.3,1-2.3,2.3-2.3s2.3,1,2.3,2.3v50.8C68.6,64.2,67.5,65.2,66.3,65.2
			z"/>
		<path class="st0" d="M78.9,54.4c-1.2,0-2.3-1-2.3-2.3V22.9c0-1.3,1-2.3,2.3-2.3s2.3,1,2.3,2.3v29.1C81.1,53.3,80.1,54.4,78.9,54.4
			z"/>
	</g>
	<g>
		<path class="st1" d="M41,74.5c-1.2,0-2.3-1-2.3-2.3V2.8c0-1.3,1-2.3,2.3-2.3s2.3,1,2.3,2.3v69.4C43.2,73.5,42.2,74.5,41,74.5z"/>
		<path class="st1" d="M28.4,65.2c-1.2,0-2.3-1-2.3-2.3V12.1c0-1.3,1-2.3,2.3-2.3c1.2,0,2.3,1,2.3,2.3v50.8
			C30.7,64.2,29.7,65.2,28.4,65.2z"/>
		<path class="st1" d="M15.8,54.4c-1.2,0-2.3-1-2.3-2.3V22.9c0-1.3,1-2.3,2.3-2.3s2.3,1,2.3,2.3v29.1C18.1,53.3,17.1,54.4,15.8,54.4
			z"/>
		<path class="st1" d="M3.3,45.4c-1.2,0-2.3-1-2.3-2.3V31.9c0-1.3,1-2.3,2.3-2.3s2.3,1,2.3,2.3v11.1C5.5,44.4,4.5,45.4,3.3,45.4z"/>
	</g>
	<g>
		<path class="st1" d="M41,74.5c-1.2,0-2.3-1-2.3-2.3V2.8c0-1.3,1-2.3,2.3-2.3s2.3,1,2.3,2.3v69.4C43.2,73.5,42.2,74.5,41,74.5z"/>
		<path class="st1" d="M28.4,65.2c-1.2,0-2.3-1-2.3-2.3V12.1c0-1.3,1-2.3,2.3-2.3c1.2,0,2.3,1,2.3,2.3v50.8
			C30.7,64.2,29.7,65.2,28.4,65.2z"/>
		<path class="st1" d="M15.8,54.4c-1.2,0-2.3-1-2.3-2.3V22.9c0-1.3,1-2.3,2.3-2.3s2.3,1,2.3,2.3v29.1C18.1,53.3,17.1,54.4,15.8,54.4
			z"/>
		<path class="st1" d="M3.3,45.4c-1.2,0-2.3-1-2.3-2.3V31.9c0-1.3,1-2.3,2.3-2.3s2.3,1,2.3,2.3v11.1C5.5,44.4,4.5,45.4,3.3,45.4z"/>
	</g>
	<ellipse class="st0" cx="90.7" cy="37.6" rx="3" ry="3.1"/>
	<g>
		<path class="st0" d="M108.2,61.6c-1.2,0-2.3-1-2.3-2.3V17.1c0-1.3,1-2.3,2.3-2.3s2.3,1,2.3,2.3v42.1
			C110.5,60.6,109.5,61.6,108.2,61.6z"/>
		<path class="st0" d="M127.9,39.4h-19.6c-1.2,0-2.3-1-2.3-2.3V17.1c0-1.3,1-2.3,2.3-2.3h19.6c6.2,0,11.2,5.2,11.2,11.5v1.6
			C139,34.2,134,39.4,127.9,39.4z M110.5,34.7h17.4c3.7,0,6.6-3.1,6.6-6.8v-1.6c0-3.8-3-6.8-6.6-6.8h-17.4V34.7z"/>
		<path class="st0" d="M130.3,61.6h-22.1c-1.2,0-2.3-1-2.3-2.3V37.6c0-1.3,1-2.3,2.3-2.3h22.1c6.6,0,11.9,5.5,11.9,12.3v1.7
			C142.3,56.1,136.9,61.6,130.3,61.6z M110.5,56.9h19.8c4.1,0,7.4-3.4,7.4-7.7v-1.7c0-4.2-3.3-7.7-7.4-7.7h-19.8V56.9z"/>
		<path class="st0" d="M169.7,39.9h-18.4c-1.2,0-2.3-1-2.3-2.3s1-2.3,2.3-2.3h18.4c1.2,0,2.3,1,2.3,2.3S170.9,39.9,169.7,39.9z"/>
		<path class="st0" d="M240.8,62.2h-5.2c-7.7,0-13.9-6.4-13.9-14.3V27.1c0-7.9,6.2-14.3,13.9-14.3h5.2c7.7,0,13.9,6.4,13.9,14.3
			v20.7C254.7,55.8,248.4,62.2,240.8,62.2z M235.5,17.5c-5.2,0-9.4,4.3-9.4,9.7v20.7c0,5.3,4.2,9.7,9.4,9.7h5.2
			c5.2,0,9.4-4.3,9.4-9.7V27.1c0-5.3-4.2-9.7-9.4-9.7H235.5z"/>
		<path class="st0" d="M195.8,62.2h-3.2c-8.2,0-14.9-7.3-14.9-16.2V29c0-8.9,6.7-16.2,14.9-16.2h3.2c4.6,0,8.9,2.3,11.8,6.2
			c0.7,1,0.5,2.5-0.5,3.2c-1,0.8-2.4,0.5-3.2-0.5c-2-2.8-5-4.3-8.1-4.3h-3.2c-5.7,0-10.4,5.2-10.4,11.5v17c0,6.4,4.7,11.5,10.4,11.5
			h3.2c5.7,0,10.4-5.2,10.4-11.5v-5.6h-12c-1.2,0-2.3-1-2.3-2.3s1-2.3,2.3-2.3h14.3c1.2,0,2.3,1,2.3,2.3V46
			C210.7,54.9,204,62.2,195.8,62.2z"/>
		<path class="st0" d="M325.1,61.6h-16.9c-1.2,0-2.3-1-2.3-2.3V17.1c0-1.3,1-2.3,2.3-2.3h16.9c7.7,0,13.9,6.4,13.9,14.3v18.1
			C339,55.2,332.7,61.6,325.1,61.6z M310.4,56.9h14.6c5.2,0,9.4-4.3,9.4-9.7V29.2c0-5.3-4.2-9.7-9.4-9.7h-14.6V56.9z"/>
		<path class="st0" d="M281.5,62.2h-5.2c-7.7,0-13.9-6.4-13.9-14.3V27.1c0-7.9,6.2-14.3,13.9-14.3h5.2c7.7,0,13.9,6.4,13.9,14.3
			v20.7C295.4,55.8,289.2,62.2,281.5,62.2z M276.3,17.5c-5.2,0-9.4,4.3-9.4,9.7v20.7c0,5.3,4.2,9.7,9.4,9.7h5.2
			c5.2,0,9.4-4.3,9.4-9.7V27.1c0-5.3-4.2-9.7-9.4-9.7H276.3z"/>
	</g>
</g>
</svg>
